<svg width="31" height="30" viewBox="0 0 31 30" fill="none" xmlns="http://www.w3.org/2000/svg">
<path d="M23.1453 0H7.20776C3.32451 0 0.176514 3.148 0.176514 7.03125V22.9688C0.176514 26.852 3.32451 30 7.20776 30H23.1453C27.0285 30 30.1765 26.852 30.1765 22.9688V7.03125C30.1765 3.148 27.0285 0 23.1453 0Z" fill="url(#paint0_radial_330_517)"/>
<path d="M23.1453 0H7.20776C3.32451 0 0.176514 3.148 0.176514 7.03125V22.9688C0.176514 26.852 3.32451 30 7.20776 30H23.1453C27.0285 30 30.1765 26.852 30.1765 22.9688V7.03125C30.1765 3.148 27.0285 0 23.1453 0Z" fill="url(#paint1_radial_330_517)"/>
<path d="M15.1776 3.28125C11.995 3.28125 11.5955 3.2952 10.3456 3.35203C9.098 3.40922 8.2464 3.60668 7.50132 3.89648C6.73046 4.19578 6.07667 4.59621 5.42534 5.24777C4.77343 5.89922 4.373 6.55301 4.07276 7.32352C3.78214 8.06883 3.58444 8.92078 3.52831 10.1678C3.47241 11.4178 3.45776 11.8174 3.45776 15.0001C3.45776 18.1828 3.47183 18.581 3.52854 19.8309C3.58597 21.0785 3.78343 21.9301 4.073 22.6752C4.37253 23.4461 4.77296 24.0998 5.42452 24.7512C6.07573 25.4031 6.72952 25.8045 7.49979 26.1038C8.24546 26.3936 9.09718 26.591 10.3445 26.6482C11.5946 26.705 11.9937 26.719 15.1762 26.719C18.3591 26.719 18.7573 26.705 20.0072 26.6482C21.2548 26.591 22.1073 26.3936 22.853 26.1038C23.6235 25.8045 24.2764 25.4031 24.9275 24.7512C25.5794 24.0998 25.9797 23.4461 26.28 22.6755C26.5681 21.9301 26.7659 21.0783 26.8245 19.8312C26.8806 18.5812 26.8953 18.1828 26.8953 15.0001C26.8953 11.8174 26.8806 11.418 26.8245 10.168C26.7659 8.92043 26.5681 8.06895 26.28 7.32387C25.9797 6.55301 25.5794 5.89922 24.9275 5.24777C24.2757 4.59598 23.6237 4.19555 22.8523 3.8966C22.1052 3.60668 21.2532 3.4091 20.0056 3.35203C18.7555 3.2952 18.3576 3.28125 15.1739 3.28125H15.1776ZM14.1263 5.39309C14.4383 5.39262 14.7865 5.39309 15.1776 5.39309C18.3066 5.39309 18.6774 5.40434 19.913 5.46047C21.0556 5.51273 21.6757 5.70363 22.0888 5.86406C22.6357 6.07641 23.0256 6.33035 23.4355 6.74063C23.8457 7.15078 24.0995 7.54137 24.3125 8.08828C24.4729 8.50078 24.664 9.12094 24.716 10.2635C24.7722 11.4989 24.7844 11.8699 24.7844 14.9974C24.7844 18.1249 24.7722 18.4961 24.716 19.7313C24.6638 20.8739 24.4729 21.4941 24.3125 21.9067C24.1001 22.4536 23.8457 22.843 23.4355 23.2529C23.0254 23.6631 22.636 23.9169 22.0888 24.1294C21.6762 24.2905 21.0556 24.4809 19.913 24.5332C18.6776 24.5893 18.3066 24.6015 15.1776 24.6015C12.0484 24.6015 11.6775 24.5893 10.4423 24.5332C9.29968 24.4805 8.67952 24.2896 8.26608 24.1291C7.71929 23.9167 7.32858 23.6629 6.91843 23.2527C6.50827 22.8425 6.25444 22.4529 6.04151 21.9057C5.88108 21.4931 5.68995 20.873 5.63792 19.7304C5.58179 18.495 5.57054 18.124 5.57054 14.9945C5.57054 11.8651 5.58179 11.496 5.63792 10.2606C5.69019 9.11801 5.88108 8.49785 6.04151 8.08477C6.25397 7.53785 6.50827 7.14727 6.91855 6.73711C7.3287 6.32695 7.71929 6.07301 8.2662 5.8602C8.67929 5.69906 9.29968 5.50863 10.4423 5.45613C11.5233 5.40727 11.9423 5.39262 14.1263 5.39016V5.39309ZM21.433 7.33887C20.6567 7.33887 20.0268 7.96816 20.0268 8.74465C20.0268 9.52102 20.6567 10.1509 21.433 10.1509C22.2094 10.1509 22.8393 9.52102 22.8393 8.74465C22.8393 7.96828 22.2094 7.3384 21.433 7.3384V7.33887ZM15.1776 8.98195C11.8541 8.98195 9.15952 11.6766 9.15952 15.0001C9.15952 18.3237 11.8541 21.017 15.1776 21.017C18.5011 21.017 21.1948 18.3237 21.1948 15.0001C21.1948 11.6767 18.5009 8.98195 15.1773 8.98195H15.1776ZM15.1776 11.0938C17.3349 11.0938 19.0839 12.8426 19.0839 15.0001C19.0839 17.1574 17.3349 18.9064 15.1776 18.9064C13.0201 18.9064 11.2714 17.1574 11.2714 15.0001C11.2714 12.8426 13.0201 11.0938 15.1776 11.0938Z" fill="white"/>
<defs>
<radialGradient id="paint0_radial_330_517" cx="0" cy="0" r="1" gradientUnits="userSpaceOnUse" gradientTransform="translate(8.14526 32.3106) rotate(-90) scale(29.7322 27.6533)">
<stop stop-color="#FFDD55"/>
<stop offset="0.1" stop-color="#FFDD55"/>
<stop offset="0.5" stop-color="#FF543E"/>
<stop offset="1" stop-color="#C837AB"/>
</radialGradient>
<radialGradient id="paint1_radial_330_517" cx="0" cy="0" r="1" gradientUnits="userSpaceOnUse" gradientTransform="translate(-4.8486 2.16105) rotate(78.681) scale(13.2905 54.7837)">
<stop stop-color="#3771C8"/>
<stop offset="0.128" stop-color="#3771C8"/>
<stop offset="1" stop-color="#6600FF" stop-opacity="0"/>
</radialGradient>
</defs>
</svg>
