<svg width="31" height="30" viewBox="0 0 31 30" fill="none" xmlns="http://www.w3.org/2000/svg">
<path d="M15.353 0C11.3757 0 7.55771 1.58133 4.74756 4.39336C1.9345 7.20651 0.353807 11.0217 0.353027 15C0.353027 18.9766 1.93506 22.7946 4.74756 25.6066C7.55771 28.4187 11.3757 30 15.353 30C19.3304 30 23.1483 28.4187 25.9585 25.6066C28.771 22.7946 30.353 18.9766 30.353 15C30.353 11.0234 28.771 7.20539 25.9585 4.39336C23.1483 1.58133 19.3304 0 15.353 0Z" fill="url(#paint0_linear_330_510)"/>
<path d="M6.51173 14.0149C10.8852 12.1099 13.8008 10.8539 15.2586 10.2471C19.4258 8.51435 20.2906 8.21341 20.8555 8.20321C20.9797 8.20122 21.2563 8.23192 21.4367 8.37782C21.5867 8.50087 21.6289 8.66728 21.65 8.78411C21.6688 8.90083 21.6945 9.16685 21.6734 9.3745C21.4484 11.7464 20.4711 17.5022 19.9742 20.1588C19.7656 21.2829 19.3508 21.6597 18.95 21.6965C18.0781 21.7767 17.4172 21.1209 16.5734 20.568C15.2539 19.7025 14.5086 19.1639 13.2266 18.3194C11.7453 17.3435 12.7063 16.807 13.55 15.9304C13.7703 15.701 17.6094 12.21 17.682 11.8933C17.6914 11.8537 17.7008 11.7061 17.6117 11.6283C17.525 11.5502 17.3961 11.5769 17.3024 11.598C17.1688 11.628 15.0617 13.0221 10.9742 15.78C10.3766 16.1911 9.83517 16.3915 9.34767 16.3809C8.81329 16.3694 7.78204 16.0781 7.01564 15.8292C6.07814 15.5238 5.33048 15.3623 5.3961 14.8436C5.42892 14.5736 5.80157 14.2973 6.51173 14.0149Z" fill="white"/>
<defs>
<linearGradient id="paint0_linear_330_510" x1="1500.35" y1="0" x2="1500.35" y2="3000" gradientUnits="userSpaceOnUse">
<stop stop-color="#2AABEE"/>
<stop offset="1" stop-color="#229ED9"/>
</linearGradient>
</defs>
</svg>
