<svg width="30" height="22" viewBox="0 0 30 22" fill="none" xmlns="http://www.w3.org/2000/svg">
<path fill-rule="evenodd" clip-rule="evenodd" d="M11.9025 14.4413V6.0125L20.0075 10.2413L11.9025 14.4413ZM29.7 4.55125C29.7 4.55125 29.4062 2.48375 28.5075 1.57375C27.3662 0.37875 26.0875 0.37375 25.5012 0.30375C21.3037 3.72529e-08 15.0063 0 15.0063 0H14.9937C14.9937 0 8.69625 3.72529e-08 4.49875 0.30375C3.91125 0.3725 2.63375 0.37875 1.49125 1.57375C0.5925 2.48375 0.3 4.55125 0.3 4.55125C0.3 4.55125 0 6.98 0 9.40625V11.6838C0 14.1112 0.3 16.5388 0.3 16.5388C0.3 16.5388 0.5925 18.605 1.49125 19.5163C2.63375 20.7113 4.1325 20.6737 4.8 20.7987C7.2 21.0287 15 21.1 15 21.1C15 21.1 21.3037 21.0912 25.5012 20.7875C26.0887 20.7175 27.3662 20.7113 28.5075 19.5163C29.4075 18.605 29.7 16.5388 29.7 16.5388C29.7 16.5388 30 14.1112 30 11.6825V9.4075C30 6.98 29.7 4.55125 29.7 4.55125Z" fill="#F11616"/>
</svg>
